<svg width="6" height="10" viewBox="0 0 6 10" fill="none" xmlns="http://www.w3.org/2000/svg">
<path d="M0.498047 5C0.498047 4.86328 0.546875 4.74609 0.644531 4.64844L4.14844 1.14453C4.24609 1.04687 4.36328 0.998047 4.5 0.998047C4.57031 0.998047 4.63477 1.01172 4.69336 1.03906C4.75586 1.06641 4.80859 1.10352 4.85156 1.15039C4.89844 1.19336 4.93555 1.24609 4.96289 1.30859C4.99023 1.36719 5.00391 1.43164 5.00391 1.50195C5.00391 1.63477 4.95312 1.75195 4.85156 1.85352L1.70508 5L4.85156 8.14648C4.90234 8.19727 4.93945 8.25 4.96289 8.30469C4.99023 8.35938 5.00391 8.42383 5.00391 8.49805C5.00391 8.56836 4.99023 8.63477 4.96289 8.69727C4.93555 8.75586 4.89844 8.80859 4.85156 8.85547C4.80859 8.89844 4.75586 8.93359 4.69336 8.96094C4.63477 8.98828 4.57031 9.00195 4.5 9.00195C4.36328 9.00195 4.24609 8.95312 4.14844 8.85547L0.644531 5.35156C0.546875 5.25391 0.498047 5.13672 0.498047 5Z"/>
</svg>
