<svg xmlns="http://www.w3.org/2000/svg">
<path d="M0.367188 11.3793C0.367188 11.7221 0.64508 12 0.987877 12H16.2982C16.641 12 16.9189 11.7221 16.9189 11.3793C16.9189 11.0365 16.641 10.7586 16.2982 10.7586H0.987878C0.64508 10.7586 0.367188 11.0365 0.367188 11.3793Z" fill="#D1D1D1"/>
<path d="M0.367188 0.62069C0.367188 0.963487 0.64508 1.24138 0.987877 1.24138H16.2982C16.641 1.24138 16.9189 0.963487 16.9189 0.62069C16.9189 0.277892 16.641 0 16.2982 0H0.987878C0.64508 0 0.367188 0.277892 0.367188 0.62069Z" fill="#D1D1D1"/>
<path d="M0.367188 6C0.367188 6.3428 0.64508 6.62069 0.987877 6.62069H16.2982C16.641 6.62069 16.9189 6.3428 16.9189 6C16.9189 5.6572 16.641 5.37931 16.2982 5.37931H0.987878C0.64508 5.37931 0.367188 5.6572 0.367188 6Z" fill="#D1D1D1"/>
</svg>
