<svg viewBox="0 0 12 8" fill="none" xmlns="http://www.w3.org/2000/svg">
<path d="M0.330566 6.625C0.330566 6.43132 0.39974 6.2653 0.538086 6.12695L5.50195 1.16309C5.6403 1.02474 5.80632 0.955566 6 0.955566C6.19368 0.955566 6.3597 1.02474 6.49805 1.16309L11.4619 6.12695C11.6003 6.2653 11.6694 6.43132 11.6694 6.625C11.6694 6.82422 11.5975 6.993 11.4536 7.13135C11.3153 7.26416 11.1493 7.33057 10.9556 7.33057C10.7619 7.33057 10.5959 7.26139 10.4575 7.12305L6 2.66553L1.54248 7.12305C1.40413 7.26139 1.23812 7.33057 1.04443 7.33057C0.850749 7.33057 0.681966 7.26416 0.538086 7.13135C0.39974 6.993 0.330566 6.82422 0.330566 6.625Z" fill="white"/>
</svg>
