<svg width="32" height="32" viewBox="0 0 32 32" fill="none" xmlns="http://www.w3.org/2000/svg">
<path d="M16.2158 15.9688L21.1548 20.9077C21.2599 21.0129 21.3125 21.1374 21.3125 21.2812C21.3125 21.4251 21.2599 21.5496 21.1548 21.6548C21.0496 21.7599 20.9251 21.8125 20.7812 21.8125C20.6374 21.8125 20.5129 21.7599 20.4077 21.6548L15.4688 16.7158L10.5298 21.6548C10.4246 21.7599 10.3001 21.8125 10.1562 21.8125C10.0124 21.8125 9.88786 21.7599 9.78271 21.6548C9.67757 21.5496 9.625 21.4251 9.625 21.2812C9.625 21.1374 9.67757 21.0129 9.78271 20.9077L14.7217 15.9688L9.78271 11.0298C9.67757 10.9246 9.625 10.8001 9.625 10.6562C9.625 10.5124 9.67757 10.3879 9.78271 10.2827C9.88786 10.1776 10.0124 10.125 10.1562 10.125C10.3001 10.125 10.4246 10.1776 10.5298 10.2827L15.4688 15.2217L20.4077 10.2827C20.5129 10.1776 20.6374 10.125 20.7812 10.125C20.9251 10.125 21.0496 10.1776 21.1548 10.2827C21.2599 10.3879 21.3125 10.5124 21.3125 10.6562C21.3125 10.8001 21.2599 10.9246 21.1548 11.0298L16.2158 15.9688Z"/>
</svg>
