<svg width="13" height="14" viewBox="0 0 13 14" fill="none" xmlns="http://www.w3.org/2000/svg">
<path d="M6.66309 10.5C6.37598 10.5 6.10254 10.443 5.84277 10.3291C5.58301 10.2106 5.35514 10.0557 5.15918 9.86426C4.96777 9.66829 4.81283 9.44043 4.69434 9.18066C4.5804 8.9209 4.52344 8.64746 4.52344 8.36035V3.01465C4.52344 2.72754 4.5804 2.4541 4.69434 2.19434C4.81283 1.93457 4.96777 1.70898 5.15918 1.51758C5.35514 1.32161 5.58301 1.16667 5.84277 1.05273C6.10254 0.934245 6.37598 0.875 6.66309 0.875H10.2588C10.5459 0.875 10.8193 0.934245 11.0791 1.05273C11.3389 1.16667 11.5645 1.32161 11.7559 1.51758C11.9518 1.70898 12.1068 1.93457 12.2207 2.19434C12.3392 2.4541 12.3984 2.72754 12.3984 3.01465V8.36035C12.3984 8.64746 12.3392 8.9209 12.2207 9.18066C12.1068 9.44043 11.9518 9.66829 11.7559 9.86426C11.5645 10.0557 11.3389 10.2106 11.0791 10.3291C10.8193 10.443 10.5459 10.5 10.2588 10.5H6.66309ZM10.2109 9.625C10.3887 9.625 10.5573 9.59082 10.7168 9.52246C10.8763 9.4541 11.0153 9.36068 11.1338 9.24219C11.2568 9.11914 11.3525 8.97786 11.4209 8.81836C11.4893 8.65885 11.5234 8.49023 11.5234 8.3125V3.0625C11.5234 2.88477 11.4893 2.71615 11.4209 2.55664C11.3525 2.39714 11.2568 2.25814 11.1338 2.13965C11.0153 2.0166 10.8763 1.9209 10.7168 1.85254C10.5573 1.78418 10.3887 1.75 10.2109 1.75H6.71094C6.5332 1.75 6.36458 1.78418 6.20508 1.85254C6.04557 1.9209 5.9043 2.0166 5.78125 2.13965C5.66276 2.25814 5.56934 2.39714 5.50098 2.55664C5.43262 2.71615 5.39844 2.88477 5.39844 3.0625V8.3125C5.39844 8.49023 5.43262 8.65885 5.50098 8.81836C5.56934 8.97786 5.66276 9.11914 5.78125 9.24219C5.9043 9.36068 6.04557 9.4541 6.20508 9.52246C6.36458 9.59082 6.5332 9.625 6.71094 9.625H10.2109ZM2.28809 13.125C2.00098 13.125 1.72754 13.068 1.46777 12.9541C1.20801 12.8356 0.980143 12.6807 0.78418 12.4893C0.592773 12.2933 0.437826 12.0654 0.319336 11.8057C0.205404 11.5459 0.148438 11.2725 0.148438 10.9854V5.63965C0.148438 5.35254 0.205404 5.0791 0.319336 4.81934C0.437826 4.55957 0.592773 4.33398 0.78418 4.14258C0.980143 3.94661 1.20801 3.79167 1.46777 3.67773C1.72754 3.55924 2.00098 3.5 2.28809 3.5H3.64844V4.375H2.33594C2.1582 4.375 1.98958 4.40918 1.83008 4.47754C1.67057 4.5459 1.5293 4.6416 1.40625 4.76465C1.28776 4.88314 1.19434 5.02214 1.12598 5.18164C1.05762 5.34115 1.02344 5.50977 1.02344 5.6875V10.9375C1.02344 11.1152 1.05762 11.2839 1.12598 11.4434C1.19434 11.6029 1.28776 11.7441 1.40625 11.8672C1.5293 11.9857 1.67057 12.0791 1.83008 12.1475C1.98958 12.2158 2.1582 12.25 2.33594 12.25H5.83594C5.97721 12.25 6.11165 12.2295 6.23926 12.1885C6.36686 12.1475 6.48535 12.0882 6.59473 12.0107C6.7041 11.9333 6.7998 11.8421 6.88184 11.7373C6.96387 11.6279 7.02767 11.5072 7.07324 11.375H7.98242C7.93229 11.6257 7.83887 11.8581 7.70215 12.0723C7.56999 12.2865 7.4082 12.471 7.2168 12.626C7.02539 12.7809 6.8112 12.904 6.57422 12.9951C6.33724 13.0817 6.09115 13.125 5.83594 13.125H2.28809Z"/>
</svg>
