<svg width="12" height="12" viewBox="0 0 12 12" fill="none" xmlns="http://www.w3.org/2000/svg">
<path d="M11.25 10.875C11.25 10.9766 11.2129 11.0645 11.1387 11.1387C11.0645 11.2129 10.9766 11.25 10.875 11.25C10.7734 11.25 10.6855 11.2129 10.6113 11.1387L7.51172 8.03906C7.14453 8.34766 6.73242 8.58594 6.27539 8.75391C5.82227 8.91797 5.35547 9 4.875 9C4.49609 9 4.13086 8.95117 3.7793 8.85352C3.42773 8.75586 3.09961 8.61719 2.79492 8.4375C2.49023 8.25781 2.21094 8.04297 1.95703 7.79297C1.70703 7.53906 1.49219 7.25977 1.3125 6.95508C1.13281 6.65039 0.994141 6.32227 0.896484 5.9707C0.798828 5.61914 0.75 5.25391 0.75 4.875C0.75 4.49609 0.798828 4.13086 0.896484 3.7793C0.994141 3.42773 1.13281 3.09961 1.3125 2.79492C1.49219 2.49023 1.70703 2.21289 1.95703 1.96289C2.21094 1.70898 2.49023 1.49219 2.79492 1.3125C3.09961 1.13281 3.42773 0.994141 3.7793 0.896484C4.13086 0.798828 4.49609 0.75 4.875 0.75C5.25391 0.75 5.61914 0.798828 5.9707 0.896484C6.32227 0.994141 6.65039 1.13281 6.95508 1.3125C7.25977 1.49219 7.53711 1.70898 7.78711 1.96289C8.04102 2.21289 8.25781 2.49023 8.4375 2.79492C8.61719 3.09961 8.75586 3.42773 8.85352 3.7793C8.95117 4.13086 9 4.49609 9 4.875C9 5.35547 8.91602 5.82422 8.74805 6.28125C8.58398 6.73438 8.34766 7.14453 8.03906 7.51172L11.1387 10.6113C11.2129 10.6855 11.25 10.7734 11.25 10.875ZM8.25 4.875C8.25 4.56641 8.20898 4.26953 8.12695 3.98438C8.04883 3.69531 7.93555 3.42578 7.78711 3.17578C7.64258 2.92578 7.4668 2.69727 7.25977 2.49023C7.05273 2.2832 6.82422 2.10742 6.57422 1.96289C6.32422 1.81445 6.05469 1.70117 5.76562 1.62305C5.48047 1.54102 5.18359 1.5 4.875 1.5C4.41016 1.5 3.97266 1.58984 3.5625 1.76953C3.15234 1.94531 2.79492 2.18555 2.49023 2.49023C2.18555 2.79492 1.94336 3.15234 1.76367 3.5625C1.58789 3.97266 1.5 4.41016 1.5 4.875C1.5 5.34375 1.58789 5.7832 1.76367 6.19336C1.93945 6.60352 2.17969 6.96094 2.48438 7.26562C2.78906 7.57031 3.14648 7.81055 3.55664 7.98633C3.9668 8.16211 4.40625 8.25 4.875 8.25C5.33984 8.25 5.77734 8.16211 6.1875 7.98633C6.59766 7.80664 6.95508 7.56445 7.25977 7.25977C7.56445 6.95508 7.80469 6.59766 7.98047 6.1875C8.16016 5.77734 8.25 5.33984 8.25 4.875Z" fill="#989898"/>
</svg>
