<svg width="46" height="24" viewBox="0 0 46 24" fill="none" xmlns="http://www.w3.org/2000/svg">
<path d="M14.2343 9.56363H10.3051V18.436H14.2343V9.56363Z" fill="url(#paint0_linear_1_6093)"/>
<path d="M24.5398 9.56247H20.6105V18.4349H24.5398V9.56247Z" fill="url(#paint1_linear_1_6093)"/>
<path d="M24.5398 9.56247H20.6105V18.4349H24.5398V9.56247Z" fill="url(#paint2_linear_1_6093)"/>
<path d="M34.8445 9.56247H30.9152V18.4349H34.8445V9.56247Z" fill="url(#paint3_linear_1_6093)"/>
<path d="M4.45036 4.21296L14.1485 18.1621C14.2046 18.2428 14.2346 18.338 14.2346 18.4353C14.2346 18.5326 14.2046 18.6278 14.1485 18.7085L10.6182 23.7831C10.572 23.8493 10.5099 23.9034 10.4373 23.9408C10.3646 23.9782 10.2836 23.9978 10.2014 23.9978C10.1191 23.9978 10.0381 23.9782 9.96544 23.9408C9.89278 23.9034 9.83066 23.8493 9.78453 23.7831L0.0863842 9.83603C0.0300915 9.75542 0 9.66027 0 9.56288C0 9.46549 0.0300915 9.37033 0.0863842 9.28972L3.61672 4.21503C3.66277 4.14882 3.72486 4.09459 3.79753 4.0571C3.8702 4.0196 3.95124 4 4.03354 4C4.11583 4 4.19687 4.0196 4.26955 4.0571C4.34222 4.09459 4.40431 4.14882 4.45036 4.21503" fill="#9BCBEB"/>
<path d="M14.7559 4.21395L24.4535 18.1621C24.5096 18.2429 24.5395 18.3381 24.5395 18.4355C24.5395 18.5329 24.5096 18.6281 24.4535 18.7089L20.9232 23.7836C20.877 23.8498 20.8149 23.9041 20.7422 23.9415C20.6695 23.979 20.5884 23.9986 20.5061 23.9986C20.4237 23.9986 20.3427 23.979 20.27 23.9415C20.1972 23.9041 20.1351 23.8498 20.089 23.7836L10.3914 9.8365C10.3353 9.75571 10.3054 9.66051 10.3054 9.56309C10.3054 9.46567 10.3353 9.37047 10.3914 9.28968L13.9212 4.21499C13.9673 4.14877 14.0295 4.09455 14.1023 4.05707C14.1751 4.0196 14.2562 4 14.3385 4C14.4209 4 14.502 4.0196 14.5748 4.05707C14.6475 4.09455 14.7097 4.14877 14.7559 4.21499" fill="#9BCBEB"/>
<path d="M25.0601 4.21206L34.7587 18.1618C34.8148 18.2424 34.8447 18.3374 34.8447 18.4347C34.8447 18.5319 34.8148 18.6269 34.7587 18.7076L31.2279 23.7854C31.1818 23.8515 31.1197 23.9056 31.0471 23.943C30.9745 23.9804 30.8935 24 30.8113 24C30.7291 24 30.6481 23.9804 30.5755 23.943C30.5029 23.9056 30.4408 23.8515 30.3948 23.7854L20.6961 9.83513C20.64 9.75452 20.6101 9.65949 20.6101 9.56224C20.6101 9.46498 20.64 9.36995 20.6961 9.28934L24.227 4.21465C24.273 4.14854 24.3351 4.09441 24.4077 4.05699C24.4803 4.01957 24.5613 4 24.6435 4C24.7257 4 24.8067 4.01957 24.8793 4.05699C24.9519 4.09441 25.014 4.14854 25.0601 4.21465" fill="#418FDE"/>
<path d="M35.3682 4.21397L39.9135 10.7536C39.9699 10.8343 40 10.9295 40 11.027C40 11.1245 39.9699 11.2197 39.9135 11.3004L36.3837 16.3751C36.3377 16.4414 36.2756 16.4958 36.2029 16.5333C36.1301 16.5709 36.049 16.5905 35.9666 16.5905C35.8843 16.5905 35.8031 16.5709 35.7304 16.5333C35.6577 16.4958 35.5956 16.4414 35.5496 16.3751L31.001 9.83652C30.9448 9.75578 30.9148 9.66056 30.9148 9.56311C30.9148 9.46566 30.9448 9.37044 31.001 9.2897L34.5308 4.21501C34.5769 4.1488 34.6391 4.09457 34.7118 4.05709C34.7845 4.0196 34.8656 4 34.9479 4C35.0302 4 35.1113 4.0196 35.184 4.05709C35.2568 4.09457 35.3189 4.1488 35.365 4.21501" fill="#418FDE"/>
<path d="M38.6279 1.3634C38.6279 1.3634 43.678 1.16659 45.2628 4.9043C46.8362 8.65036 41.087 17.5126 41.2129 19.2424C41.0713 19.8277 39.9724 20.0617 39.3181 19.3224C38.6639 18.5832 38.3733 8.73171 38.3733 8.73171L38.6377 1.36493L38.6279 1.3634Z" fill="#BF566E"/>
<path d="M41.4975 18.0622C40.9733 17.7884 40.4689 17.5177 40.1854 16.998C39.924 16.4008 41.1268 15.8895 41.0018 15.5867C40.6017 13.7332 40.9739 12.4451 41.9433 10.8956C43.8542 8.23753 41.5848 4.73751 39.3694 2.71328C39.1333 2.47419 38.8812 2.27309 38.6146 2.1001L38.3718 8.74159C38.3718 8.74159 38.6624 18.5931 39.3166 19.3323C39.9708 20.0715 41.0797 19.8391 41.2114 19.2523C41.1905 18.9961 41.3044 18.5887 41.4975 18.0622Z" fill="#8E4256"/>
<path d="M41.7105 19.4918C41.7105 19.4918 42.1611 20.1084 42.1893 20.5783C42.219 21.0383 42.177 21.6997 41.9805 21.9221C41.7741 22.143 41.7159 21.9316 41.7159 21.9316C41.7159 21.9316 41.8152 22.5947 41.3221 22.9026L40.8305 23.2007C40.8305 23.2007 40.9198 22.9514 40.8965 22.7758C40.8965 22.7758 40.3934 23.6691 39.7208 23.5039C39.0466 23.3485 38.04 22.8581 37.8836 22.2367L38.1648 22.2501C38.1648 22.2501 37.5417 22.0925 37.4008 21.2407C37.2614 20.3791 38.0271 19.8808 38.0271 19.8808L38.0343 20.0944C38.0343 20.0944 38.0874 19.6878 38.6879 19.2751C39.3211 18.8473 40.199 18.5384 40.199 18.5384L39.88 18.8329C39.88 18.8329 41.2525 18.6617 41.6824 19.4773L41.7105 19.4918Z" fill="white"/>
<path d="M28.9753 2.39328C28.9753 2.39328 31.1135 -0.816428 34.369 0.246104C37.6244 1.30864 39.381 1.07563 40.8193 2.69572C42.2576 4.31581 43.1371 7.90342 41.833 9.97777C40.529 12.0521 38.8692 13.6158 37.9784 13.9429C37.0876 14.2699 27.4004 5.55899 28.9753 2.39328Z" fill="#BF566E"/>
<path d="M42.4303 6.72088C42.2141 6.35333 41.4218 6.95883 41.13 7.33853C40.1737 8.73828 39.8119 11.1311 37.9448 10.5778C33.9416 9.24727 31.0999 5.58747 29.7026 1.55506C29.2374 2.009 28.9752 2.3933 28.9752 2.3933C27.4004 5.55901 37.0876 14.27 37.9784 13.9429C38.8692 13.6158 40.5305 12.0423 41.833 9.9778C42.397 9.0838 42.5501 7.90331 42.4303 6.72088Z" fill="#8E4256"/>
<path d="M28.4521 1.91734C28.742 1.81058 29.0573 1.93043 29.1983 2.19523C30.1612 3.94384 33.8853 10.2607 38.8763 12.9187C40.1041 13.4839 38.4649 14.5245 37.8881 15.3052C37.3213 16.0874 37.202 17.0505 35.9837 16.7499C34.7654 16.4492 29.1199 12.7281 25.3147 4.71877C24.6366 2.70069 26.9755 3.53982 27.308 2.8325C27.5651 2.28549 27.9493 2.0922 28.4537 1.90746L28.4521 1.91734Z" fill="white"/>
<defs>
<linearGradient id="paint0_linear_1_6093" x1="10.2963" y1="13.7386" x2="14.232" y2="13.7386" gradientUnits="userSpaceOnUse">
<stop stop-color="#9BCBEB"/>
<stop offset="1" stop-color="#418FDE"/>
</linearGradient>
<linearGradient id="paint1_linear_1_6093" x1="164.669" y1="-347057" x2="454.613" y2="-347057" gradientUnits="userSpaceOnUse">
<stop stop-color="#9BCBEB"/>
<stop offset="1" stop-color="#418FDE"/>
</linearGradient>
<linearGradient id="paint2_linear_1_6093" x1="20.6017" y1="13.7374" x2="24.5374" y2="13.7374" gradientUnits="userSpaceOnUse">
<stop stop-color="#9BCBEB"/>
<stop offset="1" stop-color="#418FDE"/>
</linearGradient>
<linearGradient id="paint3_linear_1_6093" x1="30.9187" y1="13.8089" x2="34.8545" y2="13.8089" gradientUnits="userSpaceOnUse">
<stop stop-color="#418FDE"/>
<stop offset="1" stop-color="#323233"/>
</linearGradient>
</defs>
</svg>
