<svg width="40" height="20" viewBox="0 0 40 20" fill="none" xmlns="http://www.w3.org/2000/svg">
<path d="M14.2343 5.56348H10.3051V14.4359H14.2343V5.56348Z" fill="url(#paint0_linear_1_2150)"/>
<path d="M24.5398 5.5625H20.6105V14.4349H24.5398V5.5625Z" fill="url(#paint1_linear_1_2150)"/>
<path d="M24.5398 5.5625H20.6105V14.4349H24.5398V5.5625Z" fill="url(#paint2_linear_1_2150)"/>
<path d="M34.8445 5.5625H30.9152V14.4349H34.8445V5.5625Z" fill="url(#paint3_linear_1_2150)"/>
<path d="M4.45036 0.212961L14.1485 14.1621C14.2046 14.2428 14.2346 14.338 14.2346 14.4353C14.2346 14.5326 14.2046 14.6278 14.1485 14.7085L10.6182 19.7831C10.572 19.8493 10.5099 19.9034 10.4373 19.9408C10.3646 19.9782 10.2836 19.9978 10.2014 19.9978C10.1191 19.9978 10.0381 19.9782 9.96544 19.9408C9.89278 19.9034 9.83066 19.8493 9.78453 19.7831L0.0863842 5.83603C0.0300915 5.75542 0 5.66027 0 5.56288C0 5.46549 0.0300915 5.37033 0.0863842 5.28972L3.61672 0.215033C3.66277 0.148818 3.72486 0.0945865 3.79753 0.0570955C3.8702 0.0196044 3.95124 0 4.03354 0C4.11583 0 4.19687 0.0196044 4.26955 0.0570955C4.34222 0.0945865 4.40431 0.148818 4.45036 0.215033" fill="#9BCBEB"/>
<path d="M14.7559 0.213951L24.4535 14.1621C24.5096 14.2429 24.5395 14.3381 24.5395 14.4355C24.5395 14.5329 24.5096 14.6281 24.4535 14.7089L20.9232 19.7836C20.877 19.8498 20.8149 19.9041 20.7422 19.9415C20.6695 19.979 20.5884 19.9986 20.5061 19.9986C20.4237 19.9986 20.3427 19.979 20.27 19.9415C20.1972 19.9041 20.1351 19.8498 20.089 19.7836L10.3914 5.8365C10.3353 5.75571 10.3054 5.66051 10.3054 5.56309C10.3054 5.46567 10.3353 5.37047 10.3914 5.28968L13.9212 0.214986C13.9673 0.148771 14.0295 0.0945534 14.1023 0.0570749C14.1751 0.0195964 14.2562 0 14.3385 0C14.4209 0 14.502 0.0195964 14.5748 0.0570749C14.6475 0.0945534 14.7097 0.148771 14.7559 0.214986" fill="#9BCBEB"/>
<path d="M25.0601 0.212062L34.7587 14.1618C34.8148 14.2424 34.8447 14.3374 34.8447 14.4347C34.8447 14.5319 34.8148 14.6269 34.7587 14.7076L31.2279 19.7854C31.1818 19.8515 31.1197 19.9056 31.0471 19.943C30.9745 19.9804 30.8935 20 30.8113 20C30.7291 20 30.6481 19.9804 30.5755 19.943C30.5029 19.9056 30.4408 19.8515 30.3948 19.7854L20.6961 5.83513C20.64 5.75452 20.6101 5.65949 20.6101 5.56224C20.6101 5.46498 20.64 5.36995 20.6961 5.28934L24.227 0.214651C24.273 0.148543 24.3351 0.094409 24.4077 0.056988C24.4803 0.019567 24.5613 0 24.6435 0C24.7257 0 24.8067 0.019567 24.8793 0.056988C24.9519 0.094409 25.014 0.148543 25.0601 0.214651" fill="#418FDE"/>
<path d="M35.3682 0.213974L39.9135 6.7536C39.9699 6.83429 40 6.92952 40 7.02701C40 7.12449 39.9699 7.21973 39.9135 7.30042L36.3837 12.3751C36.3377 12.4414 36.2756 12.4958 36.2029 12.5333C36.1301 12.5709 36.049 12.5905 35.9666 12.5905C35.8843 12.5905 35.8031 12.5709 35.7304 12.5333C35.6577 12.4958 35.5956 12.4414 35.5496 12.3751L31.001 5.83652C30.9448 5.75578 30.9148 5.66056 30.9148 5.56311C30.9148 5.46566 30.9448 5.37044 31.001 5.2897L34.5308 0.21501C34.5769 0.148795 34.6391 0.0945707 34.7118 0.057086C34.7845 0.0196012 34.8656 0 34.9479 0C35.0302 0 35.1113 0.0196012 35.184 0.057086C35.2568 0.0945707 35.3189 0.148795 35.365 0.21501" fill="#418FDE"/>
<defs>
<linearGradient id="paint0_linear_1_2150" x1="10.2963" y1="9.73844" x2="14.232" y2="9.73844" gradientUnits="userSpaceOnUse">
<stop stop-color="#9BCBEB"/>
<stop offset="1" stop-color="#418FDE"/>
</linearGradient>
<linearGradient id="paint1_linear_1_2150" x1="164.669" y1="-347061" x2="454.613" y2="-347061" gradientUnits="userSpaceOnUse">
<stop stop-color="#9BCBEB"/>
<stop offset="1" stop-color="#418FDE"/>
</linearGradient>
<linearGradient id="paint2_linear_1_2150" x1="20.6017" y1="9.73747" x2="24.5374" y2="9.73747" gradientUnits="userSpaceOnUse">
<stop stop-color="#9BCBEB"/>
<stop offset="1" stop-color="#418FDE"/>
</linearGradient>
<linearGradient id="paint3_linear_1_2150" x1="30.9187" y1="9.80893" x2="34.8545" y2="9.80893" gradientUnits="userSpaceOnUse">
<stop stop-color="#418FDE"/>
<stop offset="1" stop-color="#323233"/>
</linearGradient>
</defs>
</svg>
